<svg width="37" height="36" viewBox="0 0 37 36" fill="none" xmlns="http://www.w3.org/2000/svg">
<rect x="0.25" width="36.002" height="36.002" rx="8" fill="#F7F5F2"/>
<path d="M21.4607 9.47081C20.4618 9.09135 19.3853 8.88226 18.2547 8.88226C15.041 8.88226 12.2221 10.5472 10.5959 13.064H16.3884C18.7349 13.064 20.7173 11.5694 21.4607 9.47855V9.47081Z" fill="#B0ADAB"/>
<path d="M26.7422 21.3114C27.1449 20.2815 27.3694 19.1741 27.3694 18.0047C27.3694 14.8064 25.72 12.0031 23.2341 10.3691V16.2701C23.2341 18.5855 24.6977 20.5525 26.7422 21.3114Z" fill="#B0ADAB"/>
<path d="M20.0203 22.9377C17.6894 22.9377 15.7069 24.4245 14.9557 26.4922C15.978 26.8871 17.0854 27.1117 18.2392 27.1117C21.453 27.1117 24.2718 25.4467 25.8981 22.9299H20.0126L20.0203 22.9377Z" fill="#B0ADAB"/>
<path d="M9.75953 14.698C9.36458 15.7202 9.13226 16.8354 9.13226 17.997C9.13226 21.234 10.8205 24.0606 13.3605 25.6868V19.7781C13.3605 17.4317 11.8582 15.4415 9.75953 14.698Z" fill="#B0ADAB"/>
</svg>
