<svg width="37" height="36" viewBox="0 0 37 36" fill="none" xmlns="http://www.w3.org/2000/svg">
<rect x="0.5" width="36.002" height="36.002" rx="8" fill="#F7F5F2"/>
<path d="M10.9374 26.7593L12.9509 18.1248H7.70044L9.71388 26.7593C9.86102 27.4021 10.7748 27.4021 10.9297 26.7593H10.9374Z" fill="#B0ADAB"/>
<path d="M14.9722 9.48255L12.9587 18.1171H18.2092L16.1957 9.48255C16.0486 8.8398 15.1348 8.8398 14.9799 9.48255H14.9722Z" fill="#B0ADAB"/>
<path d="M21.4384 26.7593L23.4519 18.1248H18.2014L20.2149 26.7593C20.362 27.4021 21.2758 27.4021 21.4307 26.7593H21.4384Z" fill="#B0ADAB"/>
<path d="M25.4651 9.48255L23.4517 18.1171H28.7021L26.6887 9.48255C26.5415 8.8398 25.6277 8.8398 25.4729 9.48255H25.4651Z" fill="#B0ADAB"/>
</svg>
