<svg width="37" height="36" viewBox="0 0 37 36" fill="none" xmlns="http://www.w3.org/2000/svg">
<rect x="0.75" width="36.002" height="36.002" rx="8" fill="#F7F5F2"/>
<path d="M28.33 22.2577L20.8551 9.31565C19.9208 7.70175 17.5887 7.70175 16.6544 9.31565L9.17948 22.2577C8.24512 23.8716 9.41114 25.8948 11.2799 25.8948H26.2219C28.0906 25.8948 29.2566 23.8716 28.3223 22.2577H28.33ZM26.3223 24.2731L18.7547 22.026L11.1872 24.2731C10.5385 24.4662 10.0675 23.6631 10.5463 23.1921L16.4073 17.3697L18.1215 10.1805C18.276 9.51642 19.2258 9.51642 19.3802 10.1805L21.0945 17.3697L26.9555 23.1921C27.4343 23.6708 26.9555 24.4662 26.3146 24.2731H26.3223Z" fill="#B0ADAB"/>
</svg>
