<svg width="36" height="36" viewBox="0 0 36 36" fill="none" xmlns="http://www.w3.org/2000/svg">
<rect width="36.002" height="36.002" rx="8" fill="#F7F5F2"/>
<path d="M14.4644 14.3273H9.00854V17.7231H15.8967C17.2325 17.7231 18.3108 18.8014 18.3108 20.1372V26.9932H21.7066V21.5696C21.7066 17.5702 18.4637 14.3193 14.4563 14.3193L14.4644 14.3273Z" fill="#B0ADAB"/>
<path d="M9.07292 19.7193H9.00854V23.1151H10.5053C11.8411 23.1151 12.9194 24.1934 12.9194 25.5292V26.9937H16.3152V26.9616C16.3152 22.9622 13.0722 19.7113 9.06487 19.7113L9.07292 19.7193Z" fill="#B0ADAB"/>
<path d="M21.2238 12.4043C22.5596 12.4043 23.6378 13.4826 23.6378 14.8184V27.0015H27.0337V16.2508C27.0337 12.2514 23.7907 9.00049 19.7834 9.00049H9.00049V12.3963H21.2157L21.2238 12.4043Z" fill="#B0ADAB"/>
<path d="M14.4644 14.3273H9.00854V17.7231H15.8967C17.2325 17.7231 18.3108 18.8014 18.3108 20.1372V26.9932H21.7066V21.5696C21.7066 17.5702 18.4637 14.3193 14.4563 14.3193L14.4644 14.3273Z" fill="#B0ADAB"/>
<path d="M9.07292 19.7193H9.00854V23.1151H10.5053C11.8411 23.1151 12.9194 24.1934 12.9194 25.5292V26.9937H16.3152V26.9616C16.3152 22.9622 13.0722 19.7113 9.06487 19.7113L9.07292 19.7193Z" fill="#B0ADAB"/>
</svg>
